<svg version="1.1" xmlns="http://www.w3.org/2000/svg" xmlns:xlink="http://www.w3.org/1999/xlink" viewBox="0 0 180 180"><path fill-rule="evenodd" clip-rule="evenodd" fill="#0073ba" d="M180,88.9v2.3c-0.3,24.3-9,45.2-26.3,62.5 C136,171.2,114.8,180,90,180c-10.2,0-19.8-1.5-28.8-4.5c-12.9-4.3-24.5-11.6-34.9-21.9C8.8,136,0,114.8,0,90 c0-16.6,3.9-31.6,11.8-45h156.4c5.9,10,9.6,20.9,11,32.8C179.7,81.4,180,85,180,88.9z M159.8,33H20.2c1.9-2.3,3.9-4.5,6.1-6.6 c7.8-7.7,16.2-13.8,25.4-18.1c3.1-1.5,6.2-2.7,9.5-3.8C70.2,1.5,79.8,0,90,0c24.8,0,46,8.8,63.7,26.4 C155.8,28.5,157.8,30.7,159.8,33z M89.9,76.8l3.1,16.7l10.4,50.5h17.2l24.3-86.4h-18.3L115,107.6l-2.6,13.2L99.5,57.6H80.4 l-12.2,63.2l-2.5-13.8L54.2,57.6H35.1L59.5,144h16.8l10.4-50.5L89.9,76.8z"/></svg>